<svg viewBox="0 0 512 512" xml:space="preserve" xmlns="http://www.w3.org/2000/svg"><path d="M387.659 294.336c-.416 0-.818.051-1.213.123l-6.354-108.009a82.201 82.201 0 0 0-.328-3.939c-.046-.438-.113-.868-.167-1.304-.105-.862-.21-1.727-.342-2.581-.08-.516-.179-1.023-.269-1.535-.133-.766-.264-1.532-.418-2.289-.109-.541-.236-1.075-.356-1.611a83.9 83.9 0 0 0-.501-2.149c-.14-.55-.292-1.093-.442-1.638a83.292 83.292 0 0 0-.584-2.055c-.167-.55-.346-1.095-.522-1.64a82.078 82.078 0 0 0-.668-1.979 83.062 83.062 0 0 0-.599-1.626 83.92 83.92 0 0 0-.751-1.92 85.91 85.91 0 0 0-2.248-5.034 92.775 92.775 0 0 0-.914-1.809 80.065 80.065 0 0 0-.81-1.534 89.405 89.405 0 0 0-.995-1.761c-.288-.498-.575-.997-.873-1.489-.351-.578-.714-1.146-1.077-1.715-.309-.48-.612-.964-.93-1.438-.378-.565-.771-1.119-1.164-1.675-.325-.46-.644-.925-.978-1.378-.413-.561-.843-1.107-1.269-1.656-.334-.431-.66-.868-1.003-1.292-.47-.58-.958-1.145-1.442-1.712-.319-.375-.629-.758-.955-1.127a84.819 84.819 0 0 0-2.475-2.679c-.326-.337-.667-.658-.998-.99-.541-.541-1.079-1.086-1.635-1.612-.418-.396-.852-.775-1.277-1.163-.487-.442-.971-.891-1.468-1.321-.458-.396-.929-.777-1.395-1.164-.484-.401-.965-.806-1.459-1.196-.486-.385-.983-.756-1.479-1.13-.49-.37-.979-.743-1.478-1.103-.51-.368-1.029-.723-1.548-1.079a81.649 81.649 0 0 0-1.511-1.023 80.682 80.682 0 0 0-1.606-1.02 80.644 80.644 0 0 0-1.545-.945 82.803 82.803 0 0 0-1.667-.959 82.516 82.516 0 0 0-3.296-1.759 88.912 88.912 0 0 0-3.379-1.611 79.075 79.075 0 0 0-1.636-.708 83.116 83.116 0 0 0-1.824-.752 80.816 80.816 0 0 0-1.66-.628c-.623-.23-1.246-.462-1.875-.678-.557-.19-1.118-.366-1.679-.545-.642-.205-1.28-.412-1.929-.602-.56-.163-1.126-.31-1.689-.461-.66-.178-1.316-.361-1.982-.522-.558-.135-1.124-.25-1.686-.374-.683-.15-1.362-.31-2.051-.442-.528-.103-1.063-.183-1.595-.274a81.703 81.703 0 0 0-5.849-.818c-.016-.002-.031-.005-.048-.006v-8.483c0-16.613-15.835-31.187-33.887-31.187h-31.768c-18.052 0-33.887 14.573-33.887 31.187V109c-.017.001-.032.004-.048.006a81.624 81.624 0 0 0-5.849.818c-.531.092-1.066.172-1.595.274-.688.133-1.368.292-2.051.442-.563.124-1.128.239-1.686.374-.666.161-1.322.345-1.982.522-.563.151-1.13.298-1.689.461-.648.189-1.287.396-1.929.602-.561.179-1.123.354-1.679.545-.629.216-1.252.447-1.875.678-.555.205-1.11.411-1.66.628-.612.242-1.219.496-1.824.752-.548.231-1.094.465-1.636.708-.596.268-1.185.544-1.772.824-.539.257-1.074.519-1.607.787a85.119 85.119 0 0 0-4.963 2.718c-.52.309-1.033.626-1.545.945-.539.336-1.076.672-1.606 1.02-.509.334-1.01.679-1.511 1.023-.519.356-1.038.711-1.548 1.079-.499.359-.987.732-1.478 1.103-.496.374-.993.745-1.479 1.13-.493.391-.975.795-1.459 1.196-.466.387-.937.768-1.395 1.164-.498.431-.98.879-1.468 1.321-.426.388-.859.767-1.277 1.163-.552.522-1.086 1.064-1.623 1.602-.336.336-.681.661-1.011 1.002a84.662 84.662 0 0 0-2.474 2.678c-.326.369-.636.752-.955 1.127-.484.567-.973 1.132-1.442 1.712-.342.424-.669.861-1.003 1.292-.426.549-.855 1.096-1.269 1.656-.334.453-.653.918-.978 1.378-.393.556-.786 1.109-1.164 1.675-.318.475-.621.958-.93 1.438-.363.568-.728 1.137-1.077 1.715-.298.492-.585.991-.873 1.489a84.578 84.578 0 0 0-.995 1.761 89.743 89.743 0 0 0-.81 1.534 76.516 76.516 0 0 0-1.657 3.38 80.535 80.535 0 0 0-2.256 5.383c-.204.54-.406 1.081-.599 1.626a82.078 82.078 0 0 0-.668 1.979c-.177.545-.355 1.09-.522 1.64a83.292 83.292 0 0 0-.584 2.055c-.15.545-.304 1.088-.442 1.638-.179.711-.34 1.431-.501 2.149-.12.536-.247 1.07-.356 1.611-.154.757-.285 1.523-.418 2.289-.09.512-.188 1.02-.269 1.535-.132.854-.236 1.719-.342 2.581-.054.436-.121.866-.167 1.304a83.625 83.625 0 0 0-.329 3.939l-6.346 107.886h-1.22c-15.636 0-28.355 12.72-28.355 28.355v66.166c0 15.636 12.72 28.355 28.355 28.355h14.126a6.725 6.725 0 0 0 4.676-1.896c.414.46.813.93 1.238 1.382.025.026.052.051.076.077l.066.073c.014.015.03.023.044.037 6.96 7.336 14.994 13.214 23.771 17.495 6.104 5.166 13.988 8.291 22.592 8.291h130.141c8.604 0 16.489-3.125 22.594-8.291 8.852-4.319 16.953-10.258 23.955-17.683.426-.452.824-.922 1.238-1.382a6.72 6.72 0 0 0 4.676 1.896h14.126c15.636 0 28.355-12.72 28.355-28.355v-66.166c.006-15.635-12.714-28.355-28.35-28.355zm-167.93-193.821c0-9.961 10.959-17.687 20.387-17.687h31.768c9.428 0 20.387 7.726 20.387 17.687v8.069h-8.059v-5.369c0-6.798-5.53-12.329-12.328-12.329h-31.768c-6.798 0-12.328 5.531-12.328 12.329v5.369h-8.059v-8.069zm50.983 3.871v4.198h-29.424v-4.198h29.424zm71.886 303.259c0 5.991-2.465 11.414-6.429 15.32-8.884 4.056-18.616 6.207-28.737 6.207H204.568c-10.12 0-19.852-2.15-28.734-6.205-3.965-3.907-6.431-9.33-6.431-15.322V343.19c0-37.563 31.565-60.813 60.813-60.813h51.568c29.247 0 60.813 23.251 60.813 60.813v64.455zm33.761-41.065a69.863 69.863 0 0 1-.415 3.499c-2.015 13.919-8.236 26.846-18.147 37.356l-.005.006c-.565.6-1.151 1.173-1.733 1.749.022-.513.039-1.028.039-1.546V343.19c0-45.901-38.574-74.313-74.313-74.313h-51.568c-35.738 0-74.313 28.412-74.313 74.313v64.454c0 .519.017 1.033.04 1.548-.563-.558-1.129-1.112-1.677-1.691-.423-.447-.822-.91-1.231-1.366-.395-.439-.801-.872-1.184-1.32-.352-.411-.68-.837-1.021-1.255-.414-.508-.838-1.01-1.235-1.526-.285-.371-.55-.754-.826-1.129-.428-.579-.864-1.154-1.272-1.744-.221-.318-.422-.647-.637-.97-.439-.66-.885-1.317-1.301-1.99-.158-.257-.302-.521-.457-.78-.449-.748-.898-1.496-1.317-2.259-.108-.196-.204-.399-.311-.598a68.736 68.736 0 0 1-1.3-2.516c-.067-.141-.126-.285-.193-.426a67.42 67.42 0 0 1-1.249-2.756c-.041-.096-.074-.193-.114-.289a66.944 66.944 0 0 1-1.162-2.959c-.017-.045-.029-.09-.046-.135a70.174 70.174 0 0 1-1.062-3.171l-.022-.082a68.638 68.638 0 0 1-.914-3.28l-.005-.023a69.12 69.12 0 0 1-.759-3.388c-.008-.037-.013-.076-.02-.114a67.78 67.78 0 0 1-.571-3.343c-.013-.085-.019-.171-.03-.256a70.923 70.923 0 0 1-.386-3.241c-.026-.29-.035-.583-.059-.874-.071-.885-.143-1.77-.18-2.66-.021-.513-.016-1.029-.025-1.544-.014-.675-.04-1.349-.034-2.027.011-1.194.05-2.394.121-3.597l9.919-168.64c2.15-36.538 32.504-65.159 69.105-65.159h83.023c36.603 0 66.956 28.621 69.106 65.159l9.919 168.64a70.384 70.384 0 0 1-.178 10.697z" fill="#ffffff" class="fill-000000"></path><path d="M256 135.522c-76.118 0-94.761 50.033-99.1 79.857a6.75 6.75 0 0 0 13.36 1.943c4.531-31.158 23.086-68.301 85.739-68.301 62.565 0 81.146 37.051 85.715 68.133a6.736 6.736 0 0 0 7.661 5.696 6.749 6.749 0 0 0 5.696-7.659c-4.374-29.753-23.061-79.669-99.071-79.669z" fill="#ffffff" class="fill-000000"></path><path d="M280.986 170.158h-49.973a6.749 6.749 0 0 0-6.75 6.75 6.75 6.75 0 0 0 6.75 6.75h49.973a6.75 6.75 0 0 0 6.75-6.75 6.75 6.75 0 0 0-6.75-6.75zM239.521 309.052h32.959c3.729 0 6.75-3.021 6.75-6.75s-3.021-6.75-6.75-6.75h-32.959c-3.729 0-6.75 3.021-6.75 6.75s3.021 6.75 6.75 6.75zM309.744 341.732H202.883a6.75 6.75 0 0 0-6.561 5.167c-.25 1.029-5.921 25.431 8.612 43.89 9.995 12.694 26.648 19.132 49.494 19.132 22.909 0 39.967-6.46 50.7-19.201 15.385-18.266 11.443-42.366 11.268-43.384a6.75 6.75 0 0 0-6.652-5.604zm-14.941 40.291c-8.048 9.554-21.631 14.397-40.374 14.397-18.449 0-31.513-4.681-38.828-13.91-7.132-8.995-7.434-20.66-6.88-27.278h94.768c.058 6.612-1.143 17.836-8.686 26.791zM109.515 270.224a6.75 6.75 0 0 0 7.123-6.356l.423-7.438a6.749 6.749 0 0 0-6.355-7.122c-3.724-.221-6.911 2.633-7.123 6.355l-.424 7.438a6.752 6.752 0 0 0 6.356 7.123zM111.264 239.457a6.75 6.75 0 0 0 7.122-6.356l2.206-38.817a6.75 6.75 0 0 0-6.356-7.122c-3.723-.218-6.911 2.633-7.123 6.355l-2.206 38.817a6.75 6.75 0 0 0 6.357 7.123zM399.237 210.12a6.75 6.75 0 0 0-6.301 7.172l2.969 45.884a6.749 6.749 0 0 0 7.171 6.298 6.748 6.748 0 0 0 6.3-7.172l-2.97-45.883c-.24-3.719-3.472-6.545-7.169-6.299zM391.485 194.863a6.748 6.748 0 0 0 7.171 6.299 6.749 6.749 0 0 0 6.3-7.171l-.471-7.278c-.241-3.721-3.473-6.543-7.171-6.301a6.75 6.75 0 0 0-6.3 7.172l.471 7.279z" fill="#ffffff" class="fill-000000"></path></svg>